<svg width="20" height="20" viewBox="0 0 20 20" fill="none" xmlns="http://www.w3.org/2000/svg">
<path d="M17.5 5.83333V3.33333C17.5 3.11232 17.4122 2.90036 17.2559 2.74408C17.0996 2.5878 16.8877 2.5 16.6667 2.5H12.5C12.279 2.5 12.067 2.5878 11.9107 2.74408C11.7545 2.90036 11.6667 3.11232 11.6667 3.33333V5.83333C11.6667 6.05435 11.7545 6.26631 11.9107 6.42259C12.067 6.57887 12.279 6.66667 12.5 6.66667H16.6667C16.8877 6.66667 17.0996 6.57887 17.2559 6.42259C17.4122 6.26631 17.5 6.05435 17.5 5.83333ZM8.33333 16.6667V14.1667C8.33333 13.9457 8.24554 13.7337 8.08926 13.5774C7.93298 13.4211 7.72101 13.3333 7.5 13.3333H3.33333C3.11232 13.3333 2.90036 13.4211 2.74408 13.5774C2.5878 13.7337 2.5 13.9457 2.5 14.1667V16.6667C2.5 16.8877 2.5878 17.0996 2.74408 17.2559C2.90036 17.4122 3.11232 17.5 3.33333 17.5H7.5C7.72101 17.5 7.93298 17.4122 8.08926 17.2559C8.24554 17.0996 8.33333 16.8877 8.33333 16.6667Z" stroke="white" stroke-width="1.66667" stroke-linecap="round" stroke-linejoin="round"/>
<path d="M7.5 10H3.33333C3.11232 10 2.90036 9.9122 2.74408 9.75592C2.5878 9.59964 2.5 9.38768 2.5 9.16667V3.33333C2.5 3.11232 2.5878 2.90036 2.74408 2.74408C2.90036 2.5878 3.11232 2.5 3.33333 2.5H7.5C7.72101 2.5 7.93298 2.5878 8.08926 2.74408C8.24554 2.90036 8.33333 3.11232 8.33333 3.33333V9.16667C8.33333 9.38768 8.24554 9.59964 8.08926 9.75592C7.93298 9.9122 7.72101 10 7.5 10ZM17.5 16.6667V10.8333C17.5 10.6123 17.4122 10.4004 17.2559 10.2441C17.0996 10.0878 16.8877 10 16.6667 10H12.5C12.279 10 12.067 10.0878 11.9107 10.2441C11.7545 10.4004 11.6667 10.6123 11.6667 10.8333V16.6667C11.6667 16.8877 11.7545 17.0996 11.9107 17.2559C12.067 17.4122 12.279 17.5 12.5 17.5H16.6667C16.8877 17.5 17.0996 17.4122 17.2559 17.2559C17.4122 17.0996 17.5 16.8877 17.5 16.6667Z" stroke="white" stroke-width="1.66667" stroke-linecap="round" stroke-linejoin="round"/>
</svg>
