<svg width="20" height="20" viewBox="0 0 20 20" fill="none" xmlns="http://www.w3.org/2000/svg">
<path d="M12.3243 7.85714C12.7505 7.85714 13.1593 8.02646 13.4607 8.32786C13.7621 8.62926 13.9314 9.03804 13.9314 9.46428V13.9279C13.9314 14.97 13.5175 15.9694 12.7806 16.7063C12.0437 17.4432 11.0443 17.8571 10.0022 17.8571C8.96005 17.8571 7.96062 17.4432 7.22374 16.7063C6.48685 15.9694 6.07288 14.97 6.07288 13.9279V9.46428C6.07288 9.03804 6.2422 8.62926 6.5436 8.32786C6.84499 8.02646 7.25378 7.85714 7.68002 7.85714H12.3243ZM12.3243 8.92857H7.68002C7.53794 8.92857 7.40168 8.98501 7.30121 9.08547C7.20075 9.18594 7.1443 9.3222 7.1443 9.46428V13.9279C7.1443 14.6858 7.4454 15.4127 7.98135 15.9487C8.5173 16.4846 9.24421 16.7857 10.0022 16.7857C10.7601 16.7857 11.487 16.4846 12.023 15.9487C12.5589 15.4127 12.86 14.6858 12.86 13.9279V9.46428C12.86 9.3222 12.8036 9.18594 12.7031 9.08547C12.6026 8.98501 12.4664 8.92857 12.3243 8.92857ZM3.03573 7.85714H6.0043C5.71745 8.15565 5.51592 8.52566 5.42073 8.92857H3.03573C2.89365 8.92857 2.75739 8.98501 2.65693 9.08547C2.55646 9.18594 2.50002 9.3222 2.50002 9.46428V13.2136C2.49974 13.572 2.58939 13.9248 2.76076 14.2397C2.93213 14.5545 3.17974 14.8214 3.48093 15.0157C3.78212 15.2101 4.12726 15.3258 4.48475 15.3523C4.84223 15.3787 5.20064 15.3151 5.52716 15.1671C5.62216 15.5171 5.75859 15.85 5.93002 16.1614C5.44065 16.3753 4.90571 16.4638 4.37353 16.4191C3.84135 16.3743 3.32871 16.1977 2.88193 15.9051C2.43515 15.6125 2.06831 15.2132 1.81457 14.7433C1.56082 14.2734 1.42817 13.7476 1.42859 13.2136V9.46428C1.42859 9.03804 1.59791 8.62926 1.89931 8.32786C2.20071 8.02646 2.60949 7.85714 3.03573 7.85714ZM16.9643 7.85714C17.3905 7.85714 17.7993 8.02646 18.1007 8.32786C18.4021 8.62926 18.5714 9.03804 18.5714 9.46428V13.2143C18.5717 13.748 18.439 14.2733 18.1854 14.7429C17.9318 15.2125 17.5653 15.6115 17.1189 15.9041C16.6725 16.1966 16.1603 16.3733 15.6285 16.4184C15.0967 16.4634 14.5621 16.3754 14.0729 16.1621L14.1129 16.0893C14.2657 15.7993 14.3893 15.4914 14.4779 15.1686C14.8042 15.3154 15.1622 15.3782 15.519 15.3512C15.8759 15.3241 16.2202 15.2082 16.5208 15.0138C16.8213 14.8195 17.0683 14.553 17.2394 14.2387C17.4104 13.9243 17.5 13.5722 17.5 13.2143V9.46428C17.5 9.32232 17.4437 9.18617 17.3434 9.08573C17.2431 8.98528 17.107 8.92876 16.965 8.92857H14.5843C14.4889 8.52558 14.2871 8.15557 14 7.85714H16.9643ZM10 2.14285C10.3283 2.14285 10.6534 2.20752 10.9567 2.33315C11.26 2.45879 11.5356 2.64294 11.7678 2.87509C11.9999 3.10723 12.1841 3.38283 12.3097 3.68614C12.4354 3.98946 12.5 4.31455 12.5 4.64285C12.5 4.97116 12.4354 5.29625 12.3097 5.59956C12.1841 5.90288 11.9999 6.17847 11.7678 6.41062C11.5356 6.64277 11.26 6.82692 10.9567 6.95255C10.6534 7.07819 10.3283 7.14285 10 7.14285C9.33698 7.14285 8.70109 6.87946 8.23225 6.41062C7.76341 5.94178 7.50002 5.30589 7.50002 4.64285C7.50002 3.97981 7.76341 3.34393 8.23225 2.87509C8.70109 2.40625 9.33698 2.14285 10 2.14285ZM15.7164 2.85714C15.9979 2.85714 16.2765 2.91257 16.5365 3.02025C16.7965 3.12794 17.0327 3.28578 17.2317 3.48477C17.4307 3.68375 17.5885 3.91998 17.6962 4.17996C17.8039 4.43994 17.8593 4.71859 17.8593 5C17.8593 5.2814 17.8039 5.56005 17.6962 5.82003C17.5885 6.08002 17.4307 6.31624 17.2317 6.51522C17.0327 6.71421 16.7965 6.87205 16.5365 6.97974C16.2765 7.08743 15.9979 7.14285 15.7164 7.14285C15.1481 7.14285 14.6031 6.91709 14.2012 6.51522C13.7994 6.11336 13.5736 5.56832 13.5736 5C13.5736 4.43167 13.7994 3.88663 14.2012 3.48477C14.6031 3.0829 15.1481 2.85714 15.7164 2.85714ZM4.28359 2.85714C4.56499 2.85714 4.84364 2.91257 5.10363 3.02025C5.36361 3.12794 5.59984 3.28578 5.79882 3.48477C5.9978 3.68375 6.15564 3.91998 6.26333 4.17996C6.37102 4.43994 6.42645 4.71859 6.42645 5C6.42645 5.2814 6.37102 5.56005 6.26333 5.82003C6.15564 6.08002 5.9978 6.31624 5.79882 6.51522C5.59984 6.71421 5.36361 6.87205 5.10363 6.97974C4.84364 7.08743 4.56499 7.14285 4.28359 7.14285C3.71527 7.14285 3.17022 6.91709 2.76836 6.51522C2.3665 6.11336 2.14073 5.56832 2.14073 5C2.14073 4.43167 2.3665 3.88663 2.76836 3.48477C3.17022 3.0829 3.71527 2.85714 4.28359 2.85714ZM10 3.21428C9.62114 3.21428 9.25778 3.36479 8.98987 3.6327C8.72196 3.90061 8.57145 4.26397 8.57145 4.64285C8.57145 5.02173 8.72196 5.3851 8.98987 5.65301C9.25778 5.92091 9.62114 6.07142 10 6.07142C10.3789 6.07142 10.7423 5.92091 11.0102 5.65301C11.2781 5.3851 11.4286 5.02173 11.4286 4.64285C11.4286 4.26397 11.2781 3.90061 11.0102 3.6327C10.7423 3.36479 10.3789 3.21428 10 3.21428ZM15.7164 3.92857C15.5757 3.92857 15.4364 3.95628 15.3064 4.01012C15.1764 4.06397 15.0583 4.14289 14.9588 4.24238C14.8593 4.34187 14.7804 4.45999 14.7266 4.58998C14.6727 4.71997 14.645 4.85929 14.645 5C14.645 5.1407 14.6727 5.28002 14.7266 5.41001C14.7804 5.54001 14.8593 5.65812 14.9588 5.75761C15.0583 5.8571 15.1764 5.93602 15.3064 5.98987C15.4364 6.04371 15.5757 6.07142 15.7164 6.07142C16.0006 6.07142 16.2731 5.95854 16.4741 5.75761C16.675 5.55668 16.7879 5.28416 16.7879 5C16.7879 4.71584 16.675 4.44331 16.4741 4.24238C16.2731 4.04145 16.0006 3.92857 15.7164 3.92857ZM4.28359 3.92857C4.14289 3.92857 4.00356 3.95628 3.87357 4.01012C3.74358 4.06397 3.62547 4.14289 3.52598 4.24238C3.42648 4.34187 3.34756 4.45999 3.29372 4.58998C3.23987 4.71997 3.21216 4.85929 3.21216 5C3.21216 5.1407 3.23987 5.28002 3.29372 5.41001C3.34756 5.54001 3.42648 5.65812 3.52598 5.75761C3.62547 5.8571 3.74358 5.93602 3.87357 5.98987C4.00356 6.04371 4.14289 6.07142 4.28359 6.07142C4.56775 6.07142 4.84027 5.95854 5.0412 5.75761C5.24214 5.55668 5.35502 5.28416 5.35502 5C5.35502 4.71584 5.24214 4.44331 5.0412 4.24238C4.84027 4.04145 4.56775 3.92857 4.28359 3.92857Z" fill="white"/>
</svg>
