<svg width="20" height="20" viewBox="0 0 20 20" fill="none" xmlns="http://www.w3.org/2000/svg">
<path d="M18.3333 6.66583C18.3331 6.5171 18.2932 6.37113 18.2176 6.24305C18.142 6.11498 18.0335 6.00948 17.9033 5.93749L10.385 1.77083C10.2615 1.70254 10.1227 1.66672 9.98164 1.66672C9.84055 1.66672 9.70177 1.70254 9.57831 1.77083L2.09664 5.90416C1.96667 5.97613 1.8583 6.08154 1.78276 6.20947C1.70722 6.33739 1.66725 6.48319 1.66699 6.63176C1.66674 6.78033 1.70621 6.92626 1.78131 7.05445C1.85641 7.18263 1.96442 7.28841 2.09414 7.36083L9.61247 11.5608C9.73637 11.63 9.87588 11.6664 10.0178 11.6665C10.1597 11.6667 10.2993 11.6306 10.4233 11.5617L17.905 7.39499C18.0349 7.32272 18.1432 7.217 18.2185 7.08878C18.2938 6.96056 18.3335 6.81453 18.3333 6.66583ZM10.0191 9.87833L4.21664 6.63749L9.98081 3.45249L15.7841 6.66833L10.0191 9.87833Z" fill="white"/>
<path d="M17.0958 9.27164L9.99997 13.2133L2.90414 9.27164L2.09497 10.7283L9.59497 14.895C9.71874 14.9637 9.85798 14.9998 9.99955 14.9998C10.1411 14.9998 10.2804 14.9637 10.4041 14.895L17.9041 10.7283L17.0958 9.27164Z" fill="white"/>
<path d="M17.0958 12.605L9.99997 16.5466L2.90414 12.605L2.09497 14.0616L9.59497 18.2283C9.71874 18.297 9.85798 18.3331 9.99955 18.3331C10.1411 18.3331 10.2804 18.297 10.4041 18.2283L17.9041 14.0616L17.0958 12.605Z" fill="white"/>
</svg>
