<svg width="20" height="20" viewBox="0 0 20 20" fill="none" xmlns="http://www.w3.org/2000/svg">
<path d="M10 2.5C11.4834 2.5 12.9334 2.93987 14.1668 3.76398C15.4001 4.58809 16.3614 5.75943 16.9291 7.12987C17.4968 8.50032 17.6453 10.0083 17.3559 11.4632C17.0665 12.918 16.3522 14.2544 15.3033 15.3033C14.2544 16.3522 12.918 17.0665 11.4632 17.3559C10.0083 17.6453 8.50032 17.4968 7.12988 16.9291C5.75943 16.3614 4.58809 15.4001 3.76398 14.1668C2.93987 12.9334 2.5 11.4834 2.5 10C2.5 8.01088 3.29018 6.10322 4.6967 4.6967C6.10323 3.29018 8.01088 2.5 10 2.5ZM10 1.25C8.26942 1.25 6.57769 1.76318 5.13876 2.72464C3.69983 3.6861 2.57832 5.05267 1.91606 6.65152C1.25379 8.25037 1.08051 10.0097 1.41813 11.707C1.75575 13.4044 2.58911 14.9635 3.81282 16.1872C5.03653 17.4109 6.59563 18.2442 8.29296 18.5819C9.9903 18.9195 11.7496 18.7462 13.3485 18.0839C14.9473 17.4217 16.3139 16.3002 17.2754 14.8612C18.2368 13.4223 18.75 11.7306 18.75 10C18.75 7.67936 17.8281 5.45376 16.1872 3.81282C14.5462 2.17187 12.3206 1.25 10 1.25Z" fill="white"/>
<path d="M10 7.5C10.4945 7.5 10.9778 7.64662 11.3889 7.92133C11.8 8.19603 12.1205 8.58648 12.3097 9.04329C12.4989 9.50011 12.5484 10.0028 12.452 10.4877C12.3555 10.9727 12.1174 11.4181 11.7678 11.7678C11.4181 12.1174 10.9727 12.3555 10.4877 12.452C10.0028 12.5484 9.50011 12.4989 9.04329 12.3097C8.58648 12.1205 8.19603 11.8 7.92133 11.3889C7.64662 10.9778 7.5 10.4945 7.5 10C7.5 9.33696 7.76339 8.70107 8.23223 8.23223C8.70108 7.76339 9.33696 7.5 10 7.5ZM10 6.25C9.25832 6.25 8.5333 6.46993 7.91661 6.88199C7.29993 7.29404 6.81928 7.87971 6.53545 8.56494C6.25162 9.25016 6.17736 10.0042 6.32206 10.7316C6.46675 11.459 6.8239 12.1272 7.34835 12.6517C7.8728 13.1761 8.54098 13.5333 9.26841 13.6779C9.99584 13.8226 10.7498 13.7484 11.4351 13.4645C12.1203 13.1807 12.706 12.7001 13.118 12.0834C13.5301 11.4667 13.75 10.7417 13.75 10C13.75 9.00544 13.3549 8.05161 12.6517 7.34835C11.9484 6.64509 10.9946 6.25 10 6.25Z" fill="white"/>
</svg>
