<svg width="20" height="20" viewBox="0 0 20 20" fill="none" xmlns="http://www.w3.org/2000/svg">
<path d="M6.5359 3.16777C8.2265 2.1666 9.07183 1.66602 10 1.66602C10.9282 1.66602 11.7735 2.1666 13.4641 3.16777L14.0359 3.5064C15.7265 4.50757 16.5718 5.00816 17.0359 5.83268C17.5 6.65721 17.5 7.65838 17.5 9.66077V10.3379C17.5 12.3403 17.5 13.3415 17.0359 14.166C16.5718 14.9905 15.7265 15.4911 14.0359 16.4923L13.4641 16.8309C11.7735 17.8321 10.9282 18.3327 10 18.3327C9.07183 18.3327 8.2265 17.8321 6.5359 16.8309L5.9641 16.4923C4.2735 15.4911 3.4282 14.9905 2.9641 14.166C2.5 13.3415 2.5 12.3403 2.5 10.3379V9.66077C2.5 7.65838 2.5 6.65721 2.9641 5.83268C3.4282 5.00816 4.2735 4.50757 5.9641 3.5064L6.5359 3.16777Z" stroke="white" stroke-width="1.5"/>
<path d="M10 12.5C11.3807 12.5 12.5 11.3807 12.5 10C12.5 8.61929 11.3807 7.5 10 7.5C8.61929 7.5 7.5 8.61929 7.5 10C7.5 11.3807 8.61929 12.5 10 12.5Z" stroke="white" stroke-width="1.5"/>
</svg>
