<svg width="20" height="20" viewBox="0 0 20 20" fill="none" xmlns="http://www.w3.org/2000/svg">
<path d="M7.58913 4.53999C8.08747 3.08166 10.1025 3.03749 10.6933 4.40749L10.7433 4.54082L11.4158 6.50749C11.5699 6.95852 11.819 7.37125 12.1462 7.71784C12.4733 8.06444 12.8711 8.33683 13.3125 8.51666L13.4933 8.58416L15.46 9.25582C16.9183 9.75416 16.9625 11.7692 15.5933 12.36L15.46 12.41L13.4933 13.0825C13.0421 13.2365 12.6292 13.4855 12.2825 13.8127C11.9357 14.1399 11.6632 14.5377 11.4833 14.9792L11.4158 15.1592L10.7441 17.1267C10.2458 18.585 8.2308 18.6292 7.6408 17.26L7.58913 17.1267L6.91746 15.16C6.76345 14.7088 6.51444 14.2959 6.18725 13.9492C5.86006 13.6024 5.46229 13.3299 5.0208 13.15L4.8408 13.0825L2.87413 12.4108C1.41496 11.9125 1.3708 9.89749 2.7408 9.30749L2.87413 9.25582L4.8408 8.58416C5.29183 8.43004 5.70456 8.18099 6.05115 7.8538C6.39775 7.52661 6.67014 7.1289 6.84997 6.68749L6.91746 6.50749L7.58913 4.53999ZM9.16663 5.07832L8.49497 7.04499C8.26029 7.73274 7.87852 8.36108 7.37625 8.88624C6.87397 9.4114 6.26325 9.82076 5.58663 10.0858L5.3783 10.1617L3.41163 10.8333L5.3783 11.505C6.06605 11.7397 6.69439 12.1214 7.21955 12.6237C7.74471 13.126 8.15407 13.7367 8.41913 14.4133L8.49497 14.6217L9.16663 16.5883L9.8383 14.6217C10.073 13.9339 10.4547 13.3056 10.957 12.7804C11.4593 12.2552 12.07 11.8459 12.7466 11.5808L12.955 11.5058L14.9216 10.8333L12.955 10.1617C12.2672 9.92698 11.6389 9.54521 11.1137 9.04294C10.5886 8.54066 10.1792 7.92995 9.91413 7.25332L9.83913 7.04499L9.16663 5.07832ZM15.8333 1.66666C15.9892 1.66666 16.142 1.71039 16.2743 1.79288C16.4065 1.87538 16.513 1.99333 16.5816 2.13332L16.6216 2.23082L16.9133 3.08582L17.7691 3.37749C17.9254 3.43057 18.0623 3.52884 18.1627 3.65984C18.263 3.79084 18.3222 3.94867 18.3327 4.11334C18.3432 4.27801 18.3046 4.4421 18.2218 4.58481C18.139 4.72753 18.0157 4.84244 17.8675 4.91499L17.7691 4.95499L16.9141 5.24666L16.6225 6.10249C16.5693 6.25868 16.471 6.39557 16.3399 6.49582C16.2089 6.59606 16.051 6.65515 15.8863 6.66559C15.7217 6.67603 15.5576 6.63736 15.415 6.55447C15.2723 6.47158 15.1574 6.34821 15.085 6.19999L15.045 6.10249L14.7533 5.24749L13.8975 4.95582C13.7412 4.90274 13.6043 4.80448 13.5039 4.67348C13.4036 4.54248 13.3444 4.38464 13.3339 4.21997C13.3234 4.0553 13.362 3.89121 13.4448 3.7485C13.5276 3.60579 13.6509 3.49087 13.7991 3.41832L13.8975 3.37832L14.7525 3.08666L15.0441 2.23082C15.1003 2.06618 15.2066 1.92325 15.3482 1.82207C15.4897 1.7209 15.6593 1.66655 15.8333 1.66666Z" fill="white"/>
</svg>
