<svg width="20" height="20" viewBox="0 0 20 20" fill="none" xmlns="http://www.w3.org/2000/svg">
<path d="M10.3742 18.9883H10.3575C9.14915 18.955 7.98249 18.68 6.89082 18.18C6.81631 18.1462 6.7492 18.098 6.69335 18.0382C6.6375 17.9784 6.594 17.9082 6.56536 17.8315C6.53671 17.7549 6.52348 17.6733 6.52642 17.5916C6.52936 17.5098 6.54841 17.4294 6.58249 17.355C6.72415 17.0383 7.09915 16.905 7.40749 17.0467C8.34915 17.48 9.34915 17.705 10.3908 17.7383C10.7325 17.7467 11.0075 18.0383 10.9992 18.38C10.9908 18.7217 10.7158 18.9883 10.3742 18.9883ZM13.6408 18.4217C13.3908 18.4217 13.1575 18.2717 13.0575 18.0217C12.9325 17.6967 13.0908 17.3383 13.4158 17.2133C14.3825 16.8383 15.2492 16.28 15.9908 15.555C16.2408 15.3133 16.6325 15.3217 16.8742 15.5717C17.1158 15.8217 17.1075 16.2133 16.8575 16.455C15.9997 17.2911 14.9822 17.9458 13.8658 18.38C13.7908 18.4133 13.7158 18.4217 13.6408 18.4217ZM4.47415 16.2883C4.30749 16.2883 4.14082 16.2217 4.01582 16.0883C3.19915 15.1967 2.58249 14.1717 2.17415 13.0383C2.14352 12.9606 2.12878 12.8775 2.13083 12.794C2.13287 12.7104 2.15164 12.6281 2.18603 12.552C2.22043 12.4758 2.26974 12.4073 2.33107 12.3506C2.39239 12.2938 2.46447 12.2499 2.54305 12.2215C2.62164 12.1931 2.70512 12.1807 2.78857 12.1851C2.87202 12.1895 2.95373 12.2106 3.02889 12.2471C3.10404 12.2837 3.17111 12.3349 3.22612 12.3978C3.28113 12.4607 3.32296 12.534 3.34915 12.6133C3.69688 13.585 4.23519 14.4775 4.93249 15.2383C5.16582 15.4883 5.14915 15.8883 4.89082 16.1217C4.77415 16.23 4.61582 16.2883 4.46582 16.2883H4.47415ZM18.2908 13.8967C18.1879 13.8964 18.0867 13.8708 17.9961 13.8221C17.9055 13.7733 17.8283 13.7029 17.7714 13.6172C17.7145 13.5315 17.6797 13.433 17.67 13.3306C17.6603 13.2281 17.676 13.1249 17.7158 13.03C18.1158 12.08 18.3242 11.0717 18.3242 10.03C18.3242 9.68834 18.6075 9.40501 18.9492 9.40501C19.2908 9.40501 19.5742 9.68834 19.5742 10.03C19.5742 11.2383 19.3408 12.4133 18.8658 13.5217C18.7658 13.7633 18.5325 13.905 18.2908 13.905V13.8967ZM2.29915 10.18H2.26582C2.10045 10.1701 1.94563 10.0955 1.83489 9.97226C1.72415 9.84904 1.66641 9.68716 1.67415 9.52168C1.74082 8.31334 2.04915 7.15501 2.58249 6.08001C2.73249 5.77168 3.10749 5.64668 3.41582 5.79668C3.72415 5.94668 3.84915 6.32168 3.69915 6.63001C3.2426 7.55326 2.9789 8.55983 2.92415 9.58834C2.90749 9.92168 2.63249 10.18 2.29915 10.18ZM18.6158 8.31334C18.3492 8.31334 18.0992 8.13834 18.0158 7.86334C17.7231 6.87417 17.2358 5.9534 16.5825 5.15501C16.4789 5.02517 16.4304 4.85982 16.4476 4.69458C16.4647 4.52935 16.5461 4.37747 16.6742 4.27168C16.804 4.16806 16.9693 4.1196 17.1346 4.13674C17.2998 4.15389 17.4517 4.23527 17.5575 4.36334C18.3242 5.29668 18.8825 6.35501 19.2158 7.51334C19.2437 7.60652 19.2494 7.70494 19.2323 7.8007C19.2153 7.89646 19.176 7.98688 19.1176 8.06469C19.0593 8.1425 18.9835 8.20554 18.8963 8.24872C18.8092 8.29191 18.7131 8.31404 18.6158 8.31334ZM5.16582 4.35501C4.99082 4.35501 4.81582 4.28001 4.69082 4.13834C4.63702 4.07605 4.59606 4.00374 4.57029 3.92556C4.54452 3.84739 4.53444 3.7649 4.54063 3.68283C4.54683 3.60075 4.56917 3.5207 4.60639 3.44729C4.6436 3.37387 4.69495 3.30853 4.75749 3.25501C5.66582 2.46334 6.71582 1.87168 7.85748 1.50501C8.18249 1.39668 8.54082 1.58001 8.64082 1.90501C8.74915 2.23001 8.56582 2.58834 8.24082 2.69668C7.25748 3.01334 6.35749 3.52168 5.57415 4.20501C5.45749 4.30501 5.30748 4.35501 5.16582 4.35501ZM14.5075 3.28834C14.4055 3.28818 14.3052 3.26239 14.2158 3.21334C13.2992 2.73001 12.3158 2.43834 11.2825 2.34668C11.118 2.33185 10.9661 2.25253 10.8599 2.12606C10.7537 1.99958 10.7019 1.83623 10.7158 1.67168C10.7492 1.33001 11.0492 1.07168 11.3908 1.10501C12.5908 1.20501 13.7408 1.54668 14.8075 2.10501C15.1158 2.26334 15.2242 2.64668 15.0658 2.94668C14.9575 3.15501 14.7408 3.28001 14.5158 3.28001L14.5075 3.28834Z" fill="white"/>
</svg>
