<svg width="20" height="20" viewBox="0 0 20 20" fill="none" xmlns="http://www.w3.org/2000/svg">
<path d="M2.5 12.5C2.5 10.1592 2.5 8.98919 3.06167 8.14835C3.30493 7.78423 3.61755 7.47161 3.98167 7.22835C4.8225 6.66669 5.99167 6.66669 8.33333 6.66669H11.6667C14.0075 6.66669 15.1775 6.66669 16.0183 7.22835C16.3825 7.47161 16.6951 7.78423 16.9383 8.14835C17.5 8.98919 17.5 10.1584 17.5 12.5C17.5 14.8417 17.5 16.0109 16.9383 16.8517C16.6951 17.2158 16.3825 17.5284 16.0183 17.7717C15.1775 18.3334 14.0083 18.3334 11.6667 18.3334H8.33333C5.9925 18.3334 4.8225 18.3334 3.98167 17.7717C3.61755 17.5284 3.30493 17.2158 3.06167 16.8517C2.5 16.0109 2.5 14.8417 2.5 12.5Z" stroke="white" stroke-width="1.25" stroke-linecap="round" stroke-linejoin="round"/>
<path d="M10.4167 13.75C10.4167 13.9142 10.3844 14.0767 10.3215 14.2284C10.2587 14.38 10.1666 14.5178 10.0506 14.6339C9.9345 14.75 9.7967 14.8421 9.64504 14.9049C9.49338 14.9677 9.33084 15 9.16669 15C9.00253 15 8.83999 14.9677 8.68833 14.9049C8.53668 14.8421 8.39888 14.75 8.2828 14.6339C8.16673 14.5178 8.07466 14.38 8.01184 14.2284C7.94902 14.0767 7.91669 13.9142 7.91669 13.75C7.91669 13.4185 8.04838 13.1006 8.2828 12.8661C8.51722 12.6317 8.83517 12.5 9.16669 12.5C9.49821 12.5 9.81615 12.6317 10.0506 12.8661C10.285 13.1006 10.4167 13.4185 10.4167 13.75ZM10.4167 13.75V9.58335C10.4167 9.58335 10.75 11.0275 12.0834 11.25M15.8334 6.66669C15.8184 5.63335 15.7417 5.04752 15.3484 4.65502C14.86 4.16669 14.0734 4.16669 12.5017 4.16669H7.49835C5.92585 4.16669 5.14002 4.16669 4.65169 4.65502C4.25835 5.04752 4.18169 5.63335 4.16669 6.66669M14.1667 4.16669C14.1667 3.39002 14.1667 3.00169 14.04 2.69585C13.9563 2.4935 13.8334 2.30965 13.6786 2.15479C13.5237 1.99993 13.3399 1.87711 13.1375 1.79335C12.8317 1.66669 12.4434 1.66669 11.6667 1.66669H8.33335C7.55669 1.66669 7.16835 1.66669 6.86252 1.79335C6.66017 1.87711 6.47631 1.99993 6.32146 2.15479C6.1666 2.30965 6.04378 2.4935 5.96002 2.69585C5.83335 3.00169 5.83335 3.39002 5.83335 4.16669" stroke="white" stroke-width="1.25" stroke-linecap="round" stroke-linejoin="round"/>
</svg>
