<svg width="20" height="20" viewBox="0 0 20 20" fill="none" xmlns="http://www.w3.org/2000/svg">
<path d="M8.33331 1.66667C7.83331 1.66667 7.49998 2.00001 7.49998 2.50001V17.5C7.49998 18 7.83331 18.3333 8.33331 18.3333C8.83331 18.3333 9.16665 18 9.16665 17.5V2.50001C9.16665 2.00001 8.83331 1.66667 8.33331 1.66667ZM4.16665 10C3.66665 10 3.33331 10.3333 3.33331 10.8333V17.5C3.33331 18 3.66665 18.3333 4.16665 18.3333C4.66665 18.3333 4.99998 18 4.99998 17.5V10.8333C4.99998 10.3333 4.66665 10 4.16665 10ZM12.5 6.66667C12 6.66667 11.6666 7 11.6666 7.5V17.5C11.6666 18 12 18.3333 12.5 18.3333C13 18.3333 13.3333 18 13.3333 17.5V7.5C13.3333 7 13 6.66667 12.5 6.66667ZM16.6666 13.3333C16.1666 13.3333 15.8333 13.6667 15.8333 14.1667V17.5C15.8333 18 16.1666 18.3333 16.6666 18.3333C17.1666 18.3333 17.5 18 17.5 17.5V14.1667C17.5 13.6667 17.1666 13.3333 16.6666 13.3333Z" fill="white"/>
</svg>
