<svg width="20" height="20" viewBox="0 0 20 20" fill="none" xmlns="http://www.w3.org/2000/svg">
<path d="M7.49998 15V13.3333C7.49998 11.4583 6.01081 10 4.13665 10H4.18165C2.30665 10 0.833313 11.4583 0.833313 13.3333V15M9.99998 5.83333H20M9.99998 14.1667H18.3333M9.99998 10H15.8333M4.16665 10C3.50361 10 2.86772 9.73661 2.39888 9.26777C1.93004 8.79893 1.66665 8.16304 1.66665 7.5C1.66665 6.83696 1.93004 6.20107 2.39888 5.73223C2.86772 5.26339 3.50361 5 4.16665 5C4.82969 5 5.46557 5.26339 5.93441 5.73223C6.40325 6.20107 6.66665 6.83696 6.66665 7.5C6.66665 8.16304 6.40325 8.79893 5.93441 9.26777C5.46557 9.73661 4.82969 10 4.16665 10Z" stroke="white" stroke-width="1.66667"/>
</svg>
