<svg width="298" height="35" viewBox="0 0 298 35" fill="none" xmlns="http://www.w3.org/2000/svg">
<circle cx="3.85714" cy="6.35714" r="3.85714" fill="#3353F8"/>
<circle cx="15" cy="6.35714" r="3.85714" fill="#3353F8"/>
<circle cx="26.1428" cy="6.35714" r="3.85714" fill="#3353F8"/>
<circle cx="3.85714" cy="17.5" r="3.85714" fill="#3353F8"/>
<circle cx="15" cy="17.5" r="3.85714" fill="#3353F8"/>
<circle cx="26.1428" cy="17.5" r="3.85714" fill="#3353F8"/>
<circle cx="3.85714" cy="28.6428" r="3.85714" fill="#3353F8"/>
<circle cx="15" cy="28.6428" r="3.85714" fill="#3353F8"/>
<circle cx="26.1428" cy="28.6428" r="3.85714" fill="#3353F8"/>
<g clip-path="url(#clip0_1_563)">
<path d="M76.2727 34.7728C85.8124 34.7728 93.5454 27.0397 93.5454 17.5V5.40911C93.5454 4.03481 92.9995 2.71679 92.0277 1.74501C91.0559 0.773235 89.7379 0.227295 88.3636 0.227295L77.1363 0.227295V7.80484C77.1363 9.53384 77.2417 11.325 78.1485 12.7967C78.7977 13.8513 79.6661 14.754 80.6949 15.4435C81.7237 16.133 82.8888 16.5931 84.1111 16.7927L84.4418 16.8463C84.5782 16.8929 84.6966 16.9809 84.7804 17.0982C84.8642 17.2154 84.9093 17.3559 84.9093 17.5C84.9093 17.6441 84.8642 17.7846 84.7804 17.9019C84.6966 18.0191 84.5782 18.1072 84.4418 18.1538L84.1111 18.2073C82.3252 18.4991 80.6761 19.3444 79.3966 20.6239C78.117 21.9034 77.2717 23.5525 76.98 25.3384L76.9265 25.6692C76.8799 25.8055 76.7918 25.9239 76.6745 26.0077C76.5573 26.0915 76.4168 26.1366 76.2727 26.1366C76.1286 26.1366 75.9881 26.0915 75.8708 26.0077C75.7536 25.9239 75.6655 25.8055 75.6189 25.6692L75.5654 25.3384C75.3658 24.1161 74.9056 22.9511 74.2161 21.9223C73.5266 20.8935 72.624 20.0251 71.5693 19.3758C70.0977 18.469 68.3065 18.3637 66.5775 18.3637H59.0207C59.4724 27.5018 67.0231 34.7728 76.2727 34.7728Z" fill="#3353F8"/>
<path d="M59 16.6364H66.5775C68.3065 16.6364 70.0977 16.531 71.5694 15.6242C72.7197 14.9154 73.6881 13.947 74.3969 12.7967C75.3037 11.325 75.4091 9.53384 75.4091 7.80484V0.227295H64.1818C62.8075 0.227295 61.4895 0.773235 60.5177 1.74501C59.5459 2.71679 59 4.03481 59 5.40911V16.6364ZM99.1202 1.95457C99.1202 2.41267 98.9382 2.85201 98.6143 3.17593C98.2904 3.49986 97.8511 3.68184 97.393 3.68184C96.9349 3.68184 96.4955 3.49986 96.1716 3.17593C95.8477 2.85201 95.6657 2.41267 95.6657 1.95457C95.6657 1.49647 95.8477 1.05713 96.1716 0.733201C96.4955 0.409275 96.9349 0.227295 97.393 0.227295C97.8511 0.227295 98.2904 0.409275 98.6143 0.733201C98.9382 1.05713 99.1202 1.49647 99.1202 1.95457ZM241.841 10.6807C246.67 10.6807 249 14.0532 249 17.9595V25.2961H243.947V18.83C243.947 17.0596 243.301 15.5983 241.448 15.5983C239.596 15.5983 238.978 17.0596 238.978 18.83V25.2952H233.925V18.83C233.925 17.0596 233.308 15.5983 231.454 15.5983C229.602 15.5983 228.956 17.0596 228.956 18.83V25.2952H223.904V17.9586C223.904 14.0524 226.233 10.6799 231.061 10.6799C233.701 10.6799 235.609 11.7197 236.48 13.434C237.406 11.7197 239.427 10.679 241.841 10.679V10.6807ZM214.823 20.7991C216.451 20.7991 217.153 19.3093 217.153 17.538V11.2421H222.206V18.1564C222.206 22.288 219.792 25.7175 214.823 25.7175C209.854 25.7175 207.44 22.2889 207.44 18.1564V11.2421H212.493V17.538C212.493 19.3085 213.195 20.7991 214.823 20.7991ZM200.01 25.7452C196.838 25.7452 194.789 24.6492 193.581 22.5134L197.231 20.4614C197.736 21.3605 198.494 21.8104 199.757 21.8104C200.796 21.8104 201.273 21.4451 201.273 20.9952C201.273 19.2808 193.862 21.0237 193.862 15.5715C193.862 12.9288 196.107 10.793 199.926 10.793C203.266 10.793 205.091 12.4227 205.905 13.9971L202.256 16.0767C201.947 15.2338 200.992 14.7278 200.038 14.7278C199.308 14.7278 198.915 15.0369 198.915 15.4584C198.915 17.2012 206.326 15.5992 206.326 20.8829C206.326 23.8339 203.435 25.7452 200.01 25.7452ZM182.356 31.7604H177.303V18.241C177.303 13.9401 180.531 10.8207 185.023 10.8207C189.402 10.8207 192.743 14.1655 192.743 18.241C192.743 22.738 189.767 25.7175 185.303 25.7175C184.264 25.7175 183.226 25.4083 182.356 24.9299V31.7604ZM185.023 20.9675C186.623 20.9675 187.69 19.7308 187.69 18.2687C187.69 16.7797 186.623 15.5707 185.023 15.5707C183.422 15.5707 182.356 16.7798 182.356 18.2695C182.356 19.7308 183.422 20.9675 185.023 20.9675ZM172.241 9.7532C170.584 9.7532 169.21 8.3757 169.21 6.71752C169.21 5.05934 170.584 3.68184 172.241 3.68184C173.897 3.68184 175.273 5.05934 175.273 6.71752C175.273 8.3757 173.897 9.7532 172.241 9.7532ZM169.715 11.2421H174.768V25.2961H169.715V11.2421ZM160.02 25.7175C155.64 25.7175 152.299 22.345 152.299 18.241C152.299 14.1655 155.64 10.793 160.02 10.793C164.399 10.793 167.74 14.1655 167.74 18.241C167.74 22.345 164.399 25.7175 160.02 25.7175ZM160.02 20.9675C161.62 20.9675 162.686 19.7308 162.686 18.2687C162.686 16.7797 161.62 15.543 160.02 15.543C158.419 15.543 157.353 16.7797 157.353 18.2687C157.353 19.7308 158.419 20.9675 160.02 20.9675ZM142.758 32.1818C139.278 32.1818 136.751 30.6359 135.459 27.8809L139.642 25.6329C140.091 26.5889 140.933 27.5726 142.673 27.5726C144.499 27.5726 145.706 26.4197 145.846 24.3962C145.173 24.9869 144.105 25.436 142.506 25.436C138.603 25.436 135.459 22.4288 135.459 18.2125C135.459 14.1379 138.8 10.8207 143.18 10.8207C147.671 10.8207 150.9 13.941 150.9 18.241V23.8063C150.9 28.8655 147.39 32.1818 142.758 32.1818ZM143.095 20.6868C144.611 20.6868 145.762 19.6462 145.762 18.1003C145.762 16.5828 144.611 15.5707 143.095 15.5707C141.607 15.5707 140.428 16.5828 140.428 18.1011C140.428 19.647 141.607 20.686 143.095 20.686V20.6868ZM126.888 25.7175C122.508 25.7175 119.167 22.345 119.167 18.241C119.167 14.1655 122.508 10.793 126.888 10.793C131.267 10.793 134.608 14.1655 134.608 18.241C134.608 22.345 131.267 25.7175 126.888 25.7175ZM126.888 20.9675C128.488 20.9675 129.555 19.7308 129.555 18.2687C129.555 16.7797 128.488 15.543 126.888 15.543C125.288 15.543 124.221 16.7797 124.221 18.2687C124.221 19.7308 125.288 20.9675 126.888 20.9675ZM109.966 6.32457V20.5176H118.332V25.2961H109.264C106.064 25.2961 104.773 23.6094 104.773 20.939V6.32457H109.966Z" fill="#3353F8"/>
</g>
<defs>
<clipPath id="clip0_1_563">
<rect width="190" height="34.5455" fill="white" transform="translate(59 0.227295)"/>
</clipPath>
</defs>
</svg>
